<svg width="54" height="54" viewBox="0 0 54 54" fill="none" xmlns="http://www.w3.org/2000/svg">
  <rect width="54" height="54" rx="18" fill="url(#paint0_linear_admin)"/>
  <path d="M27 15.5L28.7748 18.8199C29.0282 19.2939 29.5075 19.6184 30.0409 19.6921L33.7782 20.2086L34.2947 23.9459C34.3684 24.4793 34.6929 24.9586 35.1669 25.212L38.4868 26.9868L35.1669 28.7616C34.6929 29.015 34.3684 29.4943 34.2947 30.0277L33.7782 33.765L30.0409 34.2815C29.5075 34.3552 29.0282 34.6797 28.7748 35.1537L27 38.4736L25.2252 35.1537C24.9718 34.6797 24.4925 34.3552 23.9591 34.2815L20.2218 33.765L19.7053 30.0277C19.6316 29.4943 19.3071 29.015 18.8331 28.7616L15.5132 26.9868L18.8331 25.212C19.3071 24.9586 19.6316 24.4793 19.7053 23.9459L20.2218 20.2086L23.9591 19.6921C24.4925 19.6184 24.9718 19.2939 25.2252 18.8199L27 15.5Z" stroke="#C2410C" stroke-width="2.4" stroke-linejoin="round"/>
  <circle cx="27" cy="27" r="6.5" stroke="#EA580C" stroke-width="3"/>
  <circle cx="27" cy="27" r="2.25" fill="#F97316"/>
  <defs>
    <linearGradient id="paint0_linear_admin" x1="8" y1="7" x2="46" y2="47" gradientUnits="userSpaceOnUse">
      <stop stop-color="#FFF1DE"/>
      <stop offset="1" stop-color="#FFE9D6"/>
    </linearGradient>
  </defs>
</svg>
